<?xml version="1.0" encoding="UTF-8" standalone="no"?>
<svg
   xmlns:dc="http://purl.org/dc/elements/1.1/"
   xmlns:cc="http://creativecommons.org/ns#"
   xmlns:rdf="http://www.w3.org/1999/02/22-rdf-syntax-ns#"
   xmlns:svg="http://www.w3.org/2000/svg"
   xmlns="http://www.w3.org/2000/svg"
   xmlns:sodipodi="http://sodipodi.sourceforge.net/DTD/sodipodi-0.dtd"
   xmlns:inkscape="http://www.inkscape.org/namespaces/inkscape"
   id="emoji"
   viewBox="0 0 72 72"
   version="1.1"
   sodipodi:docname="poo.svg"
   inkscape:version="1.0.1 (3bc2e813f5, 2020-09-07)">
  <metadata
     id="metadata27">
    <rdf:RDF>
      <cc:Work
         rdf:about="">
        <dc:format>image/svg+xml</dc:format>
        <dc:type
           rdf:resource="http://purl.org/dc/dcmitype/StillImage" />
      </cc:Work>
    </rdf:RDF>
  </metadata>
  <defs
     id="defs25" />
  <sodipodi:namedview
     pagecolor="#ffffff"
     bordercolor="#666666"
     borderopacity="1"
     objecttolerance="10"
     gridtolerance="10"
     guidetolerance="10"
     inkscape:pageopacity="0"
     inkscape:pageshadow="2"
     inkscape:window-width="2560"
     inkscape:window-height="1373"
     id="namedview23"
     showgrid="false"
     inkscape:zoom="14"
     inkscape:cx="36"
     inkscape:cy="36"
     inkscape:window-x="1911"
     inkscape:window-y="-9"
     inkscape:window-maximized="1"
     inkscape:current-layer="emoji" />
  <g
     id="color"
     transform="matrix(1.4793813,0,0,1.4793813,-18.855892,-12.681185)">
    <path
       fill="#a57939"
       d="m 23,34 c 0,0 -1.5,-3 -1,-5 0.3,-1.2 1.3,-1.8 3,-3 1.6,-1.1 2,-1.7 3,-2 0.7,-2.5 1.5,-4.5 2,-7 0.2624,-1.3501 0.5962,-2.6853 1,-4 3.1022,1.4756 6.1082,3.1456 9,5 2.3,1.5 3.5,2.4 4,4 0.6,2.1 -0.5,4.1 -1,5 1.733,-0.395 3.5522,-0.0312 5,1 1.0498,0.6835 1.7728,1.7681 2,3 0.2183,1.4136 -0.1422,2.8555 -1,4 1.3967,-0.0125 2.7735,0.3317 4,1 1.3238,0.613 2.387,1.6762 3,3 0.7,1.9 -0.2,4.3 -2,6 1.4142,-0.2318 2.8613,0.13 4,1 1.5089,1.192 2.2706,3.0962 2,5 -0.5,3.5 -4.6,4.9 -5,5 -2.2,0.7 -5.3,0.2 -10.2,-0.4 C 40.4,55 32.8,55.2 26.8,55.2 21.3,56.3 14,54 14,51 c 0,-2.7 2.3,-4.5 3,-5 0.6347,-0.3938 1.3042,-0.7285 2,-1 -1,-2 -2,-3 -2,-4 0,-1.2 1.1,-3.2 3,-5 2.1,-2.1 3,-2 3,-2 z"
       id="path2" />
    <path
       fill="#6a462f"
       d="m 31,13 c 3.1022,1.4756 6.1082,3.1456 9,5 2.3,1.5 3.5,2.4 4,4 0.6,2.1 -0.5,4.1 -1,5 1.733,-0.395 3.5522,-0.0312 5,1 1.0498,0.6835 1.7728,1.7681 2,3 0.2183,1.4136 -0.1422,2.8555 -1,4 1.3967,-0.0125 2.7735,0.3317 4,1 1.3238,0.613 2.387,1.6762 3,3 0.7,1.9 -0.2,4.3 -2,6 1.4142,-0.2318 2.8613,0.13 4,1 1.5089,1.192 2.2706,3.0962 2,5 -0.5,3.5 -4.6,4.9 -5,5 -2.2,0.7 -14.8,-1.2 -10,-2 6,-1 7.9,-2.7 8,-3 1,-2 -2,-4 -4,-4 0.2,-3.3 -0.7,-5.8 -6,-7 0.7,-3.2 -0.2,-8.1 -4,-9 2,-4 0.4,-7.2 -1,-10 -2,-4 -3,-6 -7,-8 z"
       id="path4" />
    <ellipse
       cx="27.200001"
       cy="39.400101"
       rx="4.9000001"
       ry="6.9000001"
       fill="#ffffff"
       id="ellipse6" />
    <ellipse
       cx="43.599998"
       cy="38.900101"
       rx="4.9000001"
       ry="6.9000001"
       fill="#ffffff"
       id="ellipse8" />
  </g>
  <g
     id="line"
     transform="matrix(1.4793813,0,0,1.4793813,-18.855892,-12.681185)">
    <path
       fill="none"
       stroke="#000000"
       stroke-linecap="round"
       stroke-linejoin="round"
       stroke-width="2"
       d="m 19,45 c -0.1,-0.2 -2.6,-4.1 -1,-7 1.3,-2.3 4.6,-2.9 5,-3 m 20,-8 c 0.3,-0.9 1.5,-3.4 1,-5 -0.4,-1.3 -0.9,-3 -5,-5 l -8,-4 c 0.1933,0.9907 0.1933,2.0093 0,3 -0.2,1.1 -0.7,3.3 -1,5 m 24,24 c 0.6,0.1 4.8,0.5 6,4 1,3 -2,7 -6,7 -4.3,0 -7.5,-1.2 -11.7,-1.6 M 23.6,35.1 C 23.4,35.1 23.2,35 23,35 c -0.7164,-1.2072 -1.064,-2.5977 -1,-4 0.1898,-2.5628 1.7074,-4.8391 4,-6 1.9,-0.9 2.7,-0.1 5,-1 1.5814,-0.6175 2.9644,-1.6547 4,-3 m 13.5,14.7 c 0.199,-0.2085 0.3673,-0.4442 0.5,-0.7 0.2,-0.2 1.7,-2.9 1,-5 -1,-3 -6,-2.9 -7,-3 -1.3213,1.9795 -3.0205,3.6787 -5,5 -1.8714,1.2946 -3.9774,2.2117 -6.2,2.7 m -0.5,10 c 2.9464,-0.3254 5.8185,-1.1364 8.5,-2.4 M 24.2,45 h 0.7 M 50,35 c 1.5364,0.1434 2.9634,0.8569 4,2 1.3,1.7 2.5,4.5 0,7 -2.7669,2.8203 -6.2094,4.8858 -10,6 -6,2 -15,5 -21,5 -5.1,0 -9,-1 -9,-5 0,-4.4 7.7,-4.9 10.2,-5"
       id="path11" />
    <path
       fill="none"
       stroke="#000000"
       stroke-miterlimit="10"
       stroke-width="2.436"
       d="m 30.9,44.6 c -0.7483,1.0288 -1.9286,1.6558 -3.2,1.7 -2.7,0 -4.9,-3.1 -4.9,-6.9 0,-3.8 2.2,-6.9 4.9,-6.9 2.7,0 4.9,3.1 4.9,6.9 0.0207,1.8731 -0.5768,3.7008 -1.7,5.2"
       id="path13" />
    <path
       fill="none"
       stroke="#000000"
       stroke-miterlimit="10"
       stroke-width="2.436"
       d="m 39.8,42.3 c -0.4095,-1.0862 -0.613,-2.2392 -0.6,-3.4 0,-3.8 2.2,-6.9 4.9,-6.9 2.7,0 4.9,3 4.9,6.9 0,3.9 -2.2,6.9 -4.9,6.9 -1.8,0 -3.4,-1.4 -4.3,-3.5"
       id="path15" />
    <path
       d="m 46.1,39 c 0,1.1046 -0.8954,2 -2,2 -1.1046,0 -2,-0.8954 -2,-2 0,-1.1046 0.8954,-2 2,-2 1.1046,0 2,0.8954 2,2"
       id="path17" />
    <path
       d="m 29.7,39.4 c 0,1.1046 -0.8954,2 -2,2 -1.1046,0 -2,-0.8954 -2,-2 0,-1.1046 0.8954,-2 2,-2 1.1046,0 2,0.8954 2,2"
       id="path19" />
  </g>
</svg>
